{
  "accessors": [
    {
      "bufferView": 2,
      "componentType": 5126,
      "count": 65534,
      "max": [
        6.046320915222168,
        5.838846683502197,
        8.032816886901855
      ],
      "min": [
        -4.461258888244629,
        -5.039506912231445,
        -3.5013818740844727
      ],
      "type": "VEC3"
    },
    {
      "bufferView": 2,
      "byteOffset": 786408,
      "componentType": 5126,
      "count": 65534,
      "max": [
        0.9990501403808594,
        0.99992835521698,
        0.999924898147583
      ],
      "min": [
        -0.9993453025817871,
        -0.9999269843101501,
        -0.9999757409095764
      ],
      "type": "VEC3"
    },
    {
      "bufferView": 3,
      "componentType": 5126,
      "count": 65534,
      "max": [
        0.9993236064910889,
        0.9991874694824219,
        0.8022498488426208,
        1.0
      ],
      "min": [
        -0.9175660610198975,
        -0.7774579524993896,
        -0.9914011359214783,
        1.0
      ],
      "type": "VEC4"
    },
    {
      "bufferView": 3,
      "byteOffset": 1048544,
      "componentType": 5126,
      "count": 65534,
      "max": [
        0.8784313797950745,
        0.7490196228027344,
        0.5058823823928833,
        1.0
      ],
      "min": [
        0.8784313797950745,
        0.7490196228027344,
        0.5058823823928833,
        1.0
      ],
      "type": "VEC4"
    },
    {
      "bufferView": 1,
      "componentType": 5126,
      "count": 65534,
      "max": [
        0.353515625,
        0.75
      ],
      "min": [
        0.0,
        0.5
      ],
      "type": "VEC2"
    },
    {
      "bufferView": 0,
      "componentType": 5125,
      "count": 93408,
      "type": "SCALAR"
    },
    {
      "bufferView": 2,
      "byteOffset": 1572816,
      "componentType": 5126,
      "count": 65534,
      "max": [
        5.461851596832275,
        6.004598617553711,
        7.789027690887451
      ],
      "min": [
        -4.573902130126953,
        -4.039554119110107,
        -4.838176727294922
      ],
      "type": "VEC3"
    },
    {
      "bufferView": 2,
      "byteOffset": 2359224,
      "componentType": 5126,
      "count": 65534,
      "max": [
        0.9999706149101257,
        0.9998815059661865,
        0.9982673525810242
      ],
      "min": [
        -0.9999460577964783,
        -0.9999667406082153,
        -0.997635543346405
      ],
      "type": "VEC3"
    },
    {
      "bufferView": 3,
      "byteOffset": 2097088,
      "componentType": 5126,
      "count": 65534,
      "max": [
        0.9964779019355774,
        0.9908574223518372,
        0.9846748113632202,
        1.0
      ],
      "min": [
        -0.9994195103645325,
        -0.9471771121025085,
        -0.9998196959495544,
        1.0
      ],
      "type": "VEC4"
    },
    {
      "bufferView": 3,
      "byteOffset": 3145632,
      "componentType": 5126,
      "count": 65534,
      "max": [
        0.8784313797950745,
        0.7490196228027344,
        0.5058823823928833,
        1.0
      ],
      "min": [
        0.8784313797950745,
        0.7490196228027344,
        0.5058823823928833,
        1.0
      ],
      "type": "VEC4"
    },
    {
      "bufferView": 1,
      "byteOffset": 524272,
      "componentType": 5126,
      "count": 65534,
      "max": [
        0.69921875,
        0.88671875
      ],
      "min": [
        0.0,
        0.275390625
      ],
      "type": "VEC2"
    },
    {
      "bufferView": 0,
      "byteOffset": 373632,
      "componentType": 5125,
      "count": 168504,
      "type": "SCALAR"
    },
    {
      "bufferView": 2,
      "byteOffset": 3145632,
      "componentType": 5126,
      "count": 65533,
      "max": [
        5.677520275115967,
        5.840932369232178,
        7.080777645111084
      ],
      "min": [
        -4.462073802947998,
        -4.037099361419678,
        -4.787752151489258
      ],
      "type": "VEC3"
    },
    {
      "bufferView": 2,
      "byteOffset": 3932028,
      "componentType": 5126,
      "count": 65533,
      "max": [
        0.9997555017471313,
        0.9949218034744263,
        0.9990466237068176
      ],
      "min": [
        -0.9992648959159851,
        -0.9998922348022461,
        -0.9990658760070801
      ],
      "type": "VEC3"
    },
    {
      "bufferView": 3,
      "byteOffset": 4194176,
      "componentType": 5126,
      "count": 65533,
      "max": [
        0.9998766779899597,
        0.9976931214332581,
        0.7915598154067993,
        1.0
      ],
      "min": [
        -0.8921322822570801,
        -0.759213924407959,
        -0.9989854097366333,
        -1.0
      ],
      "type": "VEC4"
    },
    {
      "bufferView": 3,
      "byteOffset": 5242704,
      "componentType": 5126,
      "count": 65533,
      "max": [
        0.8784313797950745,
        0.7490196228027344,
        0.5058823823928833,
        1.0
      ],
      "min": [
        0.8784313797950745,
        0.7490196228027344,
        0.5058823823928833,
        1.0
      ],
      "type": "VEC4"
    },
    {
      "bufferView": 1,
      "byteOffset": 1048544,
      "componentType": 5126,
      "count": 65533,
      "max": [
        0.5,
        0.7578125
      ],
      "min": [
        0.25,
        0.0
      ],
      "type": "VEC2"
    },
    {
      "bufferView": 0,
      "byteOffset": 1047648,
      "componentType": 5125,
      "count": 109749,
      "type": "SCALAR"
    },
    {
      "bufferView": 2,
      "byteOffset": 4718424,
      "componentType": 5126,
      "count": 65533,
      "max": [
        4.718117713928223,
        6.023764133453369,
        6.28713321685791
      ],
      "min": [
        -4.672691822052002,
        -3.798527479171753,
        -4.885998249053955
      ],
      "type": "VEC3"
    },
    {
      "bufferView": 2,
      "byteOffset": 5504820,
      "componentType": 5126,
      "count": 65533,
      "max": [
        0.999846339225769,
        0.9997106194496155,
        0.9971678853034973
      ],
      "min": [
        -0.9992297887802124,
        -0.9994771480560303,
        -0.9994640946388245
      ],
      "type": "VEC3"
    },
    {
      "bufferView": 3,
      "byteOffset": 6291232,
      "componentType": 5126,
      "count": 65533,
      "max": [
        0.9966076016426086,
        0.9545283913612366,
        0.9872394800186157,
        1.0
      ],
      "min": [
        -0.9980620741844177,
        -0.9957403540611267,
        -0.9687973856925964,
        -1.0
      ],
      "type": "VEC4"
    },
    {
      "bufferView": 3,
      "byteOffset": 7339760,
      "componentType": 5126,
      "count": 65533,
      "max": [
        0.8784313797950745,
        0.7490196228027344,
        0.5058823823928833,
        1.0
      ],
      "min": [
        0.8784313797950745,
        0.7490196228027344,
        0.5058823823928833,
        1.0
      ],
      "type": "VEC4"
    },
    {
      "bufferView": 1,
      "byteOffset": 1572808,
      "componentType": 5126,
      "count": 65533,
      "max": [
        0.75,
        0.75
      ],
      "min": [
        0.25,
        0.0
      ],
      "type": "VEC2"
    },
    {
      "bufferView": 0,
      "byteOffset": 1486644,
      "componentType": 5125,
      "count": 86565,
      "type": "SCALAR"
    },
    {
      "bufferView": 2,
      "byteOffset": 6291216,
      "componentType": 5126,
      "count": 65533,
      "max": [
        6.038805961608887,
        5.371051788330078,
        8.026104927062988
      ],
      "min": [
        -4.554295539855957,
        -5.030714988708496,
        -3.5481534004211426
      ],
      "type": "VEC3"
    },
    {
      "bufferView": 2,
      "byteOffset": 7077612,
      "componentType": 5126,
      "count": 65533,
      "max": [
        0.9997290968894958,
        0.9988161325454712,
        0.9996659159660339
      ],
      "min": [
        -0.9999898076057434,
        -0.9984648823738098,
        -0.9993467330932617
      ],
      "type": "VEC3"
    },
    {
      "bufferView": 3,
      "byteOffset": 8388288,
      "componentType": 5126,
      "count": 65533,
      "max": [
        0.9998278617858887,
        0.9970382452011108,
        0.8457733392715454,
        1.0
      ],
      "min": [
        -0.904593825340271,
        -0.7773780226707458,
        -0.9998232126235962,
        1.0
      ],
      "type": "VEC4"
    },
    {
      "bufferView": 3,
      "byteOffset": 9436816,
      "componentType": 5126,
      "count": 65533,
      "max": [
        0.8784313797950745,
        0.7490196228027344,
        0.5058823823928833,
        1.0
      ],
      "min": [
        0.8784313797950745,
        0.7490196228027344,
        0.5058823823928833,
        1.0
      ],
      "type": "VEC4"
    },
    {
      "bufferView": 1,
      "byteOffset": 2097072,
      "componentType": 5126,
      "count": 65533,
      "max": [
        0.5,
        1.0
      ],
      "min": [
        0.25,
        0.0
      ],
      "type": "VEC2"
    },
    {
      "bufferView": 0,
      "byteOffset": 1832904,
      "componentType": 5125,
      "count": 91680,
      "type": "SCALAR"
    },
    {
      "bufferView": 2,
      "byteOffset": 7864008,
      "componentType": 5126,
      "count": 34956,
      "max": [
        5.6780242919921875,
        5.738834381103516,
        7.414351940155029
      ],
      "min": [
        -4.569415092468262,
        -4.758683681488037,
        -4.7960991859436035
      ],
      "type": "VEC3"
    },
    {
      "bufferView": 2,
      "byteOffset": 8283480,
      "componentType": 5126,
      "count": 34956,
      "max": [
        0.9993083477020264,
        0.9990410208702087,
        0.998867928981781
      ],
      "min": [
        -0.9994564652442932,
        -0.9985738396644592,
        -0.9986276030540466
      ],
      "type": "VEC3"
    },
    {
      "bufferView": 3,
      "byteOffset": 10485344,
      "componentType": 5126,
      "count": 34956,
      "max": [
        0.9981926679611206,
        0.9936888813972473,
        0.7893263101577759,
        1.0
      ],
      "min": [
        -0.8935919404029846,
        -0.782747209072113,
        -0.996135413646698,
        1.0
      ],
      "type": "VEC4"
    },
    {
      "bufferView": 3,
      "byteOffset": 11044640,
      "componentType": 5126,
      "count": 34956,
      "max": [
        0.8784313797950745,
        0.7490196228027344,
        0.5058823823928833,
        1.0
      ],
      "min": [
        0.8784313797950745,
        0.7490196228027344,
        0.5058823823928833,
        1.0
      ],
      "type": "VEC4"
    },
    {
      "bufferView": 1,
      "byteOffset": 2621336,
      "componentType": 5126,
      "count": 34956,
      "max": [
        0.5,
        0.8125
      ],
      "min": [
        0.25,
        0.25
      ],
      "type": "VEC2"
    },
    {
      "bufferView": 0,
      "byteOffset": 2199624,
      "componentType": 5125,
      "count": 39918,
      "type": "SCALAR"
    }
  ],
  "asset": {
    "extras": {
      "author": "organ collector (https://sketchfab.com/jtaylor27)",
      "license": "CC-BY-4.0 (http://creativecommons.org/licenses/by/4.0/)",
      "source": "https://sketchfab.com/3d-models/elliptical-galaxy-e98ca8e3954e4cdc9b9b1788511db105",
      "title": "Elliptical Galaxy"
    },
    "generator": "Sketchfab-16.7.0",
    "version": "2.0"
  },
  "bufferViews": [
    {
      "buffer": 0,
      "byteLength": 2359296,
      "name": "floatBufferViews",
      "target": 34963
    },
    {
      "buffer": 0,
      "byteLength": 2900984,
      "byteOffset": 2359296,
      "byteStride": 8,
      "name": "floatBufferViews",
      "target": 34962
    },
    {
      "buffer": 0,
      "byteLength": 8702952,
      "byteOffset": 5260280,
      "byteStride": 12,
      "name": "floatBufferViews",
      "target": 34962
    },
    {
      "buffer": 0,
      "byteLength": 11603936,
      "byteOffset": 13963232,
      "byteStride": 16,
      "name": "floatBufferViews",
      "target": 34962
    }
  ],
  "buffers": [
    {
      "byteLength": 25567168,
      "uri": "scene.bin"
    }
  ],
  "images": [
    {
      "uri": "textures/material_0_baseColor.png"
    },
    {
      "uri": "textures/material_0_normal.png"
    }
  ],
  "materials": [
    {
      "alphaMode": "BLEND",
      "name": "material_0",
      "normalTexture": {
        "index": 1
      },
      "pbrMetallicRoughness": {
        "baseColorTexture": {
          "index": 0
        },
        "metallicFactor": 0.0,
        "roughnessFactor": 0.6
      }
    }
  ],
  "meshes": [
    {
      "name": "Object_0",
      "primitives": [
        {
          "attributes": {
            "COLOR_0": 3,
            "NORMAL": 1,
            "POSITION": 0,
            "TANGENT": 2,
            "TEXCOORD_0": 4
          },
          "indices": 5,
          "material": 0,
          "mode": 4
        }
      ]
    },
    {
      "name": "Object_1",
      "primitives": [
        {
          "attributes": {
            "COLOR_0": 9,
            "NORMAL": 7,
            "POSITION": 6,
            "TANGENT": 8,
            "TEXCOORD_0": 10
          },
          "indices": 11,
          "material": 0,
          "mode": 4
        }
      ]
    },
    {
      "name": "Object_2",
      "primitives": [
        {
          "attributes": {
            "COLOR_0": 15,
            "NORMAL": 13,
            "POSITION": 12,
            "TANGENT": 14,
            "TEXCOORD_0": 16
          },
          "indices": 17,
          "material": 0,
          "mode": 4
        }
      ]
    },
    {
      "name": "Object_3",
      "primitives": [
        {
          "attributes": {
            "COLOR_0": 21,
            "NORMAL": 19,
            "POSITION": 18,
            "TANGENT": 20,
            "TEXCOORD_0": 22
          },
          "indices": 23,
          "material": 0,
          "mode": 4
        }
      ]
    },
    {
      "name": "Object_4",
      "primitives": [
        {
          "attributes": {
            "COLOR_0": 27,
            "NORMAL": 25,
            "POSITION": 24,
            "TANGENT": 26,
            "TEXCOORD_0": 28
          },
          "indices": 29,
          "material": 0,
          "mode": 4
        }
      ]
    },
    {
      "name": "Object_5",
      "primitives": [
        {
          "attributes": {
            "COLOR_0": 33,
            "NORMAL": 31,
            "POSITION": 30,
            "TANGENT": 32,
            "TEXCOORD_0": 34
          },
          "indices": 35,
          "material": 0,
          "mode": 4
        }
      ]
    }
  ],
  "nodes": [
    {
      "children": [
        1
      ],
      "matrix": [
        1.0,
        0.0,
        0.0,
        0.0,
        0.0,
        2.220446049250313e-16,
        -1.0,
        0.0,
        0.0,
        1.0,
        2.220446049250313e-16,
        0.0,
        0.0,
        0.0,
        0.0,
        1.0
      ],
      "name": "Sketchfab_model"
    },
    {
      "children": [
        2,
        3,
        4,
        5,
        6,
        7
      ],
      "name": "ellipticalgalaxy.obj.cleaner.materialmerger.gles"
    },
    {
      "mesh": 0,
      "name": "Object_2"
    },
    {
      "mesh": 1,
      "name": "Object_3"
    },
    {
      "mesh": 2,
      "name": "Object_4"
    },
    {
      "mesh": 3,
      "name": "Object_5"
    },
    {
      "mesh": 4,
      "name": "Object_6"
    },
    {
      "mesh": 5,
      "name": "Object_7"
    }
  ],
  "samplers": [
    {
      "magFilter": 9729,
      "minFilter": 9987,
      "wrapS": 10497,
      "wrapT": 10497
    }
  ],
  "scene": 0,
  "scenes": [
    {
      "name": "Sketchfab_Scene",
      "nodes": [
        0
      ]
    }
  ],
  "textures": [
    {
      "sampler": 0,
      "source": 0
    },
    {
      "sampler": 0,
      "source": 1
    }
  ]
}
